<?xml version="1.0" encoding="utf-8"?>
<!-- Generator: Adobe Illustrator 19.1.0, SVG Export Plug-In . SVG Version: 6.00 Build 0)  -->
<svg version="1.1" id="Calque_1" xmlns="http://www.w3.org/2000/svg" xmlns:xlink="http://www.w3.org/1999/xlink" x="0px" y="0px"
	 viewBox="0 0 595.3 271" style="enable-background:new 0 0 595.3 271;" xml:space="preserve">
<style type="text/css">
	.st0{fill:#EDEDED;}
</style>
<g>
	<path class="st0" d="M281.9,53.2c0.9-0.8,1.4-2.1,1.4-3.7c0-3.4-1.9-5-5.8-5h-2.5v10.1h2.8C279.6,54.5,280.9,54.1,281.9,53.2z"/>
	<path class="st0" d="M457.8,44.5h-2.5v10.1h2.8c1.8,0,3.1-0.4,4.1-1.3s1.4-2.1,1.4-3.7C463.5,46.1,461.6,44.5,457.8,44.5z"/>
	<polygon class="st0" points="289.2,218.4 293.7,218.4 291.5,204.9 	"/>
	<path class="st0" d="M250,201.5c-1.6,0-2.7,0.5-3.3,1.4s-0.9,2.3-0.9,4.1v13.7c0,1.9,0.3,3.3,0.9,4.2s1.7,1.4,3.3,1.4
		s2.7-0.5,3.3-1.4s0.9-2.3,0.9-4.2V207c0-1.8-0.3-3.2-0.9-4.1S251.6,201.5,250,201.5z"/>
	<path class="st0" d="M0,0v271h595.3V0H0z M445.4,37.9l2.5,1l-2.6,2h-2.1L445.4,37.9z M348.9,42.2h10.3v2.3h-7.8v3.9h7v2.2h-7v3.9
		h8.1v2.3h-10.6V42.2z M351.5,125.2v3.4h-5.6v11.2h7.9v3.4h-12.4v-31.5h12.4v3.4h-7.9v10.1H351.5z M343.8,154.6
		c1.5,0,2.7,0.2,3.8,0.7s1.9,1.1,2.6,1.9s1.1,1.8,1.4,2.9s0.5,2.4,0.6,3.9c0,0.2,0,0.6,0,1h-4.5v-1c0-0.6,0-1.2-0.1-1.6
		s-0.1-0.9-0.2-1.4s-0.2-0.9-0.4-1.2s-0.4-0.6-0.7-0.9s-0.6-0.5-1-0.6s-0.9-0.2-1.5-0.2c-0.7,0-1.4,0.1-1.9,0.4s-0.9,0.5-1.2,0.9
		s-0.5,0.9-0.7,1.5s-0.3,1.2-0.3,1.8s-0.1,1.3-0.1,2.2v11.2c0,0.8,0,1.4,0.1,2s0.2,1.2,0.4,1.8s0.4,1.1,0.7,1.5s0.7,0.7,1.2,1
		s1.1,0.4,1.7,0.4s1.2-0.1,1.7-0.4s0.9-0.6,1.1-1s0.5-0.9,0.7-1.5s0.3-1.2,0.3-1.8s0.1-1.3,0.1-2v-1.1h4.5v1.1
		c0,1.6-0.1,3.1-0.4,4.3s-0.8,2.3-1.4,3.3s-1.5,1.7-2.6,2.2s-2.4,0.7-4,0.7c-1.3,0-2.5-0.2-3.5-0.6s-1.8-0.9-2.5-1.6
		s-1.2-1.5-1.6-2.5s-0.7-2-0.9-3.2s-0.2-2.4-0.2-3.8v-9c0-1.4,0.1-2.7,0.2-3.8s0.4-2.2,0.9-3.2s0.9-1.8,1.6-2.5s1.5-1.2,2.5-1.5
		S342.4,154.6,343.8,154.6z M350,189.3h4.5L350,196h-2.2L350,189.3z M334.3,44c1.5-1.5,3.3-2.2,5.4-2.2c2.1,0,3.9,0.6,5.3,1.8
		l-1.3,1.9c-0.6-0.5-1.2-0.8-1.7-1c-0.6-0.2-1.3-0.3-2-0.3c-1.5,0-2.7,0.5-3.7,1.4c-1,1-1.5,2.2-1.5,3.8c0,1.6,0.5,2.8,1.5,3.8
		c1,0.9,2.2,1.4,3.6,1.4c1.4,0,2.6-0.3,3.5-0.9v-4h2.5v5c-1.4,1.5-3.4,2.3-5.9,2.3c-2.2,0-4-0.7-5.4-2.1c-1.5-1.4-2.2-3.2-2.2-5.4
		C332,47.3,332.8,45.4,334.3,44z M329.1,111.4c2.6,0,4.6,0.6,6.1,1.9s2.4,3,2.8,5.3c0,0.2,0.1,0.6,0.1,1l-4.5,1.1
		c0-0.2,0-0.5-0.1-0.9c-0.2-1.4-0.6-2.6-1.3-3.4s-1.7-1.3-3.1-1.3c-1.1,0-1.9,0.3-2.5,0.9s-0.9,1.4-0.9,2.5c0,1.8,0.8,3.3,2.2,4.4
		l5.6,4.5c3,2.4,4.5,5.3,4.5,8.7c0,2.3-0.7,4.1-2.1,5.4s-3.3,2-5.7,2c-2.8,0-5-0.8-6.5-2.5s-2.3-3.9-2.5-6.8l4.5-1.1
		c0.2,4.5,1.7,6.8,4.5,6.8c2.2,0,3.4-1.1,3.4-3.4c0-0.7-0.1-1.3-0.3-1.9s-0.5-1.1-0.8-1.6s-0.7-0.9-1-1.1s-0.7-0.6-1.2-1.1l-5.6-4.5
		c-1-0.8-1.9-1.8-2.5-3.1s-0.9-2.7-0.9-4.3c0-2.3,0.7-4.2,2.2-5.5S326.7,111.4,329.1,111.4z M309.7,42.2h2.5l8.5,11v-11h2.5v14.7
		h-2.7l-8.3-10.7v10.7h-2.5V42.2z M308.6,123l5.6,4.5c3,2.4,4.5,5.3,4.5,8.7c0,2.3-0.7,4.1-2.1,5.4s-3.3,2-5.7,2
		c-2.8,0-5-0.8-6.5-2.5s-2.3-3.9-2.5-6.8l4.5-1.1c0.2,4.5,1.7,6.8,4.5,6.8c2.2,0,3.4-1.1,3.4-3.4c0-0.7-0.1-1.3-0.3-1.9
		s-0.5-1.1-0.8-1.6s-0.7-0.9-1-1.1s-0.7-0.6-1.2-1.1l-5.6-4.5c-1-0.8-1.9-1.8-2.5-3.1s-0.9-2.7-0.9-4.3c0-2.3,0.7-4.2,2.2-5.5
		s3.4-2.1,5.7-2.1c2.6,0,4.6,0.6,6.1,1.9s2.4,3,2.8,5.3c0,0.2,0.1,0.6,0.1,1l-4.5,1.1c0-0.2,0-0.5-0.1-0.9c-0.2-1.4-0.6-2.6-1.3-3.4
		s-1.7-1.3-3.1-1.3c-1.1,0-1.9,0.3-2.5,0.9s-0.9,1.4-0.9,2.5C306.3,120.3,307.1,121.8,308.6,123z M310.4,168.4v3.4h-5.6v11.2h7.9
		v3.4h-12.4v-31.5h12.4v3.4h-7.9v10.1H310.4z M293.4,42.2h2.5v8.1c0,1.3,0.3,2.4,1,3.2s1.6,1.2,2.7,1.2c1.1,0,2.1-0.4,2.7-1.2
		s1-1.8,1-3.2v-8.1h2.5v8.2c0,2.1-0.6,3.7-1.7,4.9c-1.2,1.1-2.7,1.7-4.5,1.7c-1.8,0-3.3-0.6-4.5-1.7c-1.2-1.1-1.7-2.8-1.7-4.9V42.2z
		 M287.9,43.5c0-0.4,0.1-0.8,0.4-1c0.3-0.2,0.6-0.4,0.9-0.4s0.7,0.1,1,0.4c0.3,0.2,0.4,0.5,0.4,0.9c0,0.4-0.1,0.8-0.4,1.1l-1.2,1.8
		h-1.3l0.8-1.8C288.1,44.3,287.9,44,287.9,43.5z M287.5,111.7h12.4v3.4H292v10.1h5.6v3.4H292v11.2h7.9v3.4h-12.4V111.7z
		 M295.8,154.9v31.5h-3.2l-8.1-21v21H280v-31.5h3.4l7.9,19.5v-19.5H295.8z M272.6,42.2h5c2.6,0,4.7,0.6,6.1,1.9s2.1,3.1,2.1,5.3
		s-0.7,4.1-2.1,5.4s-3.5,2-6.3,2h-4.9V42.2z M267.2,111.7h3.4l7.9,19.5v-19.5h4.5v31.5h-3.2l-8.1-21v21h-4.5V111.7z M275.2,154.9
		v31.5h-4.5v-31.5H275.2z M253.1,42.2h10.3v2.3h-7.8v3.9h7v2.2h-7v3.9h8.1v2.3h-10.6V42.2z M262.4,111.7v31.5h-4.5v-31.5H262.4z
		 M253.4,125.2v3.4h-5.6v14.6h-4.5v-31.5h12.4v3.4h-7.9v10.1H253.4z M238.9,44c1.5-1.5,3.4-2.2,5.6-2.2c2.3,0,4.2,0.8,5.7,2.5
		l-1.6,1.7c-0.7-0.7-1.4-1.1-2-1.4c-0.6-0.3-1.4-0.4-2.2-0.4c-1.5,0-2.7,0.5-3.7,1.4c-1,1-1.5,2.2-1.5,3.7c0,1.5,0.5,2.7,1.5,3.7
		s2.2,1.5,3.6,1.5c0.9,0,1.6-0.1,2.2-0.4s1.3-0.7,1.9-1.4l1.6,1.6c-1.6,1.7-3.4,2.6-5.7,2.6c-2.2,0-4.1-0.7-5.5-2.1
		c-1.5-1.4-2.2-3.2-2.2-5.4C236.7,47.3,237.4,45.4,238.9,44z M120.1,56.8h-9.2V42.2h2.5v12.3h6.7V56.8z M122.2,44.6l-1.2,1.8h-1.3
		l0.8-1.8c-0.4-0.2-0.6-0.6-0.6-1s0.1-0.8,0.4-1c0.3-0.2,0.6-0.4,0.9-0.4s0.7,0.1,1,0.4c0.3,0.2,0.4,0.5,0.4,0.9
		C122.6,43.8,122.4,44.2,122.2,44.6z M136.1,56.8h-10.6V42.2h10.3v2.3H128v3.9h7v2.2h-7v3.9h8.1V56.8z M147.9,56.8l-3.6-5.5h-0.1
		l-3.6,5.5h-3.1l5-7.5l-4.7-7.1h3.1l3.3,5h0.1l3.3-5h3.1l-4.7,7.1l5,7.5H147.9z M156.5,53.1c1,1,2.2,1.5,3.6,1.5
		c0.9,0,1.6-0.1,2.2-0.4s1.3-0.7,1.9-1.4l1.6,1.6c-1.6,1.7-3.4,2.6-5.7,2.6c-2.2,0-4.1-0.7-5.5-2.1c-1.5-1.4-2.2-3.2-2.2-5.4
		c0-2.2,0.7-4,2.2-5.5c1.5-1.5,3.4-2.2,5.6-2.2c2.3,0,4.2,0.8,5.7,2.5l-1.6,1.7c-0.7-0.7-1.4-1.1-2-1.4c-0.6-0.3-1.4-0.4-2.2-0.4
		c-1.5,0-2.7,0.5-3.7,1.4c-1,1-1.5,2.2-1.5,3.7C155,50.8,155.5,52.1,156.5,53.1z M179.4,56.8h-10.6V42.2h10.3v2.3h-7.8v3.9h7v2.2h-7
		v3.9h8.1V56.8z M191.7,56.8h-9.2V42.2h2.5v12.3h6.7V56.8z M203.6,56.8h-9.2V42.2h2.5v12.3h6.7V56.8z M216.9,56.8h-10.6V42.2h10.3
		v2.3h-7.8v3.9h7v2.2h-7v3.9h8.1V56.8z M222.6,56.8h-2.5V42.2h2.5l8.5,11v-11h2.5v14.7h-2.7l-8.3-10.7V56.8z M229.5,154.9h12.4v3.4
		H234v10.1h5.6v3.4H234v11.2h7.9v3.4h-12.4V154.9z M258.7,219.5c0,4.6-1.3,7.7-3.8,9.3c0.3,0.5,0.9,0.9,1.5,1.2s1.3,0.5,1.9,0.5v3.7
		c-1.3,0-2.5-0.4-3.8-1.3s-2.2-1.9-2.8-3c-0.5,0.1-1.1,0.1-1.8,0.1c-1.6,0-2.9-0.2-4.1-0.7s-2-1.2-2.7-2.1s-1.2-2-1.5-3.3
		s-0.5-2.7-0.5-4.4v-11.4c0-1.7,0.2-3.1,0.5-4.3s0.8-2.3,1.5-3.2s1.6-1.6,2.7-2s2.5-0.7,4.1-0.7c3.1,0,5.3,0.9,6.6,2.6s2,4.3,2,7.6
		V219.5z M257,186.4h-3.4l-4.5-24.9v24.9h-4.5v-31.5h6.2l4.5,24.1l4.5-24.1h6.2v31.5h-4.5v-24.9L257,186.4z M280.4,218.4
		c0,1.4-0.1,2.7-0.3,3.9s-0.5,2.2-0.9,3.2s-1,1.8-1.6,2.5s-1.5,1.2-2.6,1.5s-2.2,0.5-3.6,0.5s-2.6-0.2-3.6-0.5s-1.9-0.9-2.6-1.5
		s-1.2-1.5-1.6-2.5s-0.7-2-0.9-3.2s-0.3-2.4-0.3-3.9v-20.2h4.5v20.2c0,1,0,1.8,0.1,2.4s0.1,1.4,0.3,2.1s0.4,1.3,0.7,1.8
		s0.8,0.8,1.3,1.1s1.3,0.4,2.1,0.4s1.5-0.1,2.1-0.4s1-0.7,1.3-1.1s0.6-1,0.7-1.8s0.3-1.4,0.3-2.1s0.1-1.5,0.1-2.4v-20.2h4.5V218.4z
		 M296,229.6l-1.7-7.9h-5.6l-1.7,7.9h-4.5l6.8-31.5h4.5l6.7,31.5H296z M315.4,229.6H303v-31.5h4.5v28.1h7.9V229.6z M315.4,154.9h3.4
		l7.9,19.5v-19.5h4.5v31.5H328l-8.1-21v21h-4.5V154.9z M322.2,229.6h-4.5v-31.5h4.5V229.6z M340.5,202.1h-5.6v27.5h-4.5v-27.5h-5.6
		v-4h15.8V202.1z M355.1,201.5h-7.9v10.1h5.6v3.4h-5.6v11.2h7.9v3.4h-12.4v-31.5h12.4V201.5z M367.5,158.3h-7.9v10.1h5.6v3.4h-5.6
		v11.2h7.9v3.4h-12.4v-31.5h12.4V158.3z M376.1,56.8h-2.7l-8.3-10.7v10.7h-2.5V42.2h2.5l8.5,11v-11h2.5V56.8z M389.4,56.8l-3.5-4.9
		h-3.3v4.9h-2.5V42.2h5.5c2.2,0,3.8,0.4,4.8,1.1c1,0.8,1.4,2,1.4,3.6c0,2.4-1.1,3.9-3.2,4.6l3.8,5.3H389.4z M406,56.8h-10.6V42.2
		h10.3v2.3h-7.8v3.9h7v2.2h-7v3.9h8.1V56.8z M417.4,56.8H415V42.2h2.5V56.8z M435,56.8h-2.7L424,46.1v10.7h-2.5V42.2h2.5l8.5,11v-11
		h2.5V56.8z M449.6,56.8h-10.6V42.2h10.3v2.3h-7.8v3.9h7v2.2h-7v3.9h8.1V56.8z M464,54.8c-1.4,1.3-3.5,2-6.3,2h-4.9V42.2h5
		c2.6,0,4.7,0.6,6.1,1.9s2.1,3.1,2.1,5.3S465.3,53.5,464,54.8z M471.7,56.8h-2.5V42.2h2.5V56.8z M485.8,44.4h-4.5v12.4h-2.5V44.4
		h-4.5v-2.3h11.4V44.4z"/>
	<path class="st0" d="M388.6,44.9c-0.5-0.4-1.4-0.5-2.8-0.5h-3.1v5.2h3.1c1.4,0,2.4-0.2,2.9-0.7s0.8-1.1,0.8-2.1
		S389.1,45.3,388.6,44.9z"/>
</g>
</svg>
