<?xml version="1.0" encoding="utf-8"?>
<!-- Generator: Adobe Illustrator 19.1.0, SVG Export Plug-In . SVG Version: 6.00 Build 0)  -->
<svg version="1.1" id="Calque_1" xmlns="http://www.w3.org/2000/svg" xmlns:xlink="http://www.w3.org/1999/xlink" x="0px" y="0px"
	 viewBox="0 162.3 595.3 271" style="enable-background:new 0 162.3 595.3 271;" xml:space="preserve">
<style type="text/css">
	.st0{fill:#FFFFFF;}
</style>
<g>
	<path class="st0" d="M281.9,215.5c0.9-0.8,1.4-2.1,1.4-3.7c0-3.4-1.9-5-5.8-5H275v10.1h2.8C279.6,216.8,280.9,216.4,281.9,215.5z"
		/>
	<path class="st0" d="M457.8,206.8h-2.5v10.1h2.8c1.8,0,3.1-0.4,4.1-1.3s1.4-2.1,1.4-3.7C463.5,208.4,461.6,206.8,457.8,206.8z"/>
	<polygon class="st0" points="289.2,380.7 293.7,380.7 291.5,367.2 	"/>
	<path class="st0" d="M250,363.8c-1.6,0-2.7,0.5-3.3,1.4s-0.9,2.3-0.9,4.1V383c0,1.9,0.3,3.3,0.9,4.2s1.7,1.4,3.3,1.4
		s2.7-0.5,3.3-1.4s0.9-2.3,0.9-4.2v-13.7c0-1.8-0.3-3.2-0.9-4.1C252.7,364.3,251.6,363.8,250,363.8z"/>
	<path class="st0" d="M0,162.3v271h595.3v-271H0z M445.4,200.2l2.5,1l-2.6,2h-2.1L445.4,200.2z M348.9,204.5h10.3v2.3h-7.8v3.9h7
		v2.2h-7v3.9h8.1v2.3h-10.6V204.5z M351.5,287.5v3.4h-5.6v11.2h7.9v3.4h-12.4V274h12.4v3.4h-7.9v10.1L351.5,287.5L351.5,287.5z
		 M343.8,316.9c1.5,0,2.7,0.2,3.8,0.7s1.9,1.1,2.6,1.9s1.1,1.8,1.4,2.9c0.3,1.1,0.5,2.4,0.6,3.9c0,0.2,0,0.6,0,1h-4.5v-1
		c0-0.6,0-1.2-0.1-1.6c-0.1-0.4-0.1-0.9-0.2-1.4s-0.2-0.9-0.4-1.2c-0.2-0.3-0.4-0.6-0.7-0.9s-0.6-0.5-1-0.6s-0.9-0.2-1.5-0.2
		c-0.7,0-1.4,0.1-1.9,0.4s-0.9,0.5-1.2,0.9s-0.5,0.9-0.7,1.5s-0.3,1.2-0.3,1.8s-0.1,1.3-0.1,2.2v11.2c0,0.8,0,1.4,0.1,2
		s0.2,1.2,0.4,1.8s0.4,1.1,0.7,1.5s0.7,0.7,1.2,1c0.5,0.3,1.1,0.4,1.7,0.4s1.2-0.1,1.7-0.4s0.9-0.6,1.1-1s0.5-0.9,0.7-1.5
		s0.3-1.2,0.3-1.8s0.1-1.3,0.1-2v-1.1h4.5v1.1c0,1.6-0.1,3.1-0.4,4.3c-0.3,1.2-0.8,2.3-1.4,3.3s-1.5,1.7-2.6,2.2s-2.4,0.7-4,0.7
		c-1.3,0-2.5-0.2-3.5-0.6c-1-0.4-1.8-0.9-2.5-1.6s-1.2-1.5-1.6-2.5s-0.7-2-0.9-3.2c-0.2-1.2-0.2-2.4-0.2-3.8v-9
		c0-1.4,0.1-2.7,0.2-3.8s0.4-2.2,0.9-3.2s0.9-1.8,1.6-2.5c0.7-0.7,1.5-1.2,2.5-1.5C341.2,316.9,342.4,316.9,343.8,316.9z M350,351.6
		h4.5l-4.5,6.7h-2.2L350,351.6z M334.3,206.3c1.5-1.5,3.3-2.2,5.4-2.2s3.9,0.6,5.3,1.8l-1.3,1.9c-0.6-0.5-1.2-0.8-1.7-1
		c-0.6-0.2-1.3-0.3-2-0.3c-1.5,0-2.7,0.5-3.7,1.4c-1,1-1.5,2.2-1.5,3.8c0,1.6,0.5,2.8,1.5,3.8c1,0.9,2.2,1.4,3.6,1.4
		s2.6-0.3,3.5-0.9v-4h2.5v5c-1.4,1.5-3.4,2.3-5.9,2.3c-2.2,0-4-0.7-5.4-2.1c-1.5-1.4-2.2-3.2-2.2-5.4
		C332,209.6,332.8,207.7,334.3,206.3z M329.1,273.7c2.6,0,4.6,0.6,6.1,1.9c1.5,1.3,2.4,3,2.8,5.3c0,0.2,0.1,0.6,0.1,1l-4.5,1.1
		c0-0.2,0-0.5-0.1-0.9c-0.2-1.4-0.6-2.6-1.3-3.4c-0.7-0.8-1.7-1.3-3.1-1.3c-1.1,0-1.9,0.3-2.5,0.9s-0.9,1.4-0.9,2.5
		c0,1.8,0.8,3.3,2.2,4.4l5.6,4.5c3,2.4,4.5,5.3,4.5,8.7c0,2.3-0.7,4.1-2.1,5.4s-3.3,2-5.7,2c-2.8,0-5-0.8-6.5-2.5
		c-1.5-1.7-2.3-3.9-2.5-6.8l4.5-1.1c0.2,4.5,1.7,6.8,4.5,6.8c2.2,0,3.4-1.1,3.4-3.4c0-0.7-0.1-1.3-0.3-1.9c-0.2-0.6-0.5-1.1-0.8-1.6
		s-0.7-0.9-1-1.1s-0.7-0.6-1.2-1.1l-5.6-4.5c-1-0.8-1.9-1.8-2.5-3.1c-0.6-1.3-0.9-2.7-0.9-4.3c0-2.3,0.7-4.2,2.2-5.5
		C325,274.4,326.7,273.7,329.1,273.7z M309.7,204.5h2.5l8.5,11v-11h2.5v14.7h-2.7l-8.3-10.7v10.7h-2.5V204.5z M308.6,285.3l5.6,4.5
		c3,2.4,4.5,5.3,4.5,8.7c0,2.3-0.7,4.1-2.1,5.4s-3.3,2-5.7,2c-2.8,0-5-0.8-6.5-2.5c-1.5-1.7-2.3-3.9-2.5-6.8l4.5-1.1
		c0.2,4.5,1.7,6.8,4.5,6.8c2.2,0,3.4-1.1,3.4-3.4c0-0.7-0.1-1.3-0.3-1.9c-0.2-0.6-0.5-1.1-0.8-1.6s-0.7-0.9-1-1.1s-0.7-0.6-1.2-1.1
		l-5.6-4.5c-1-0.8-1.9-1.8-2.5-3.1s-0.9-2.7-0.9-4.3c0-2.3,0.7-4.2,2.2-5.5c1.5-1.3,3.4-2.1,5.7-2.1c2.6,0,4.6,0.6,6.1,1.9
		c1.5,1.3,2.4,3,2.8,5.3c0,0.2,0.1,0.6,0.1,1l-4.5,1.1c0-0.2,0-0.5-0.1-0.9c-0.2-1.4-0.6-2.6-1.3-3.4c-0.7-0.8-1.7-1.3-3.1-1.3
		c-1.1,0-1.9,0.3-2.5,0.9c-0.6,0.6-0.9,1.4-0.9,2.5C306.3,282.6,307.1,284.1,308.6,285.3z M310.4,330.7v3.4h-5.6v11.2h7.9v3.4h-12.4
		v-31.5h12.4v3.4h-7.9v10.1H310.4L310.4,330.7z M293.4,204.5h2.5v8.1c0,1.3,0.3,2.4,1,3.2c0.7,0.8,1.6,1.2,2.7,1.2s2.1-0.4,2.7-1.2
		c0.6-0.8,1-1.8,1-3.2v-8.1h2.5v8.2c0,2.1-0.6,3.7-1.7,4.9c-1.2,1.1-2.7,1.7-4.5,1.7s-3.3-0.6-4.5-1.7c-1.2-1.1-1.7-2.8-1.7-4.9
		V204.5z M287.9,205.8c0-0.4,0.1-0.8,0.4-1s0.6-0.4,0.9-0.4s0.7,0.1,1,0.4c0.3,0.2,0.4,0.5,0.4,0.9c0,0.4-0.1,0.8-0.4,1.1l-1.2,1.8
		h-1.3l0.8-1.8C288.1,206.6,287.9,206.3,287.9,205.8z M287.5,274h12.4v3.4H292v10.1h5.6v3.4H292v11.2h7.9v3.4h-12.4V274z
		 M295.8,317.2v31.5h-3.2l-8.1-21v21H280v-31.5h3.4l7.9,19.5v-19.5H295.8z M272.6,204.5h5c2.6,0,4.7,0.6,6.1,1.9s2.1,3.1,2.1,5.3
		c0,2.2-0.7,4.1-2.1,5.4s-3.5,2-6.3,2h-4.9L272.6,204.5L272.6,204.5z M267.2,274h3.4l7.9,19.5V274h4.5v31.5h-3.2l-8.1-21v21h-4.5
		L267.2,274L267.2,274z M275.2,317.2v31.5h-4.5v-31.5H275.2z M253.1,204.5h10.3v2.3h-7.8v3.9h7v2.2h-7v3.9h8.1v2.3h-10.6
		L253.1,204.5L253.1,204.5z M262.4,274v31.5h-4.5V274H262.4z M253.4,287.5v3.4h-5.6v14.6h-4.5V274h12.4v3.4h-7.9v10.1H253.4z
		 M238.9,206.3c1.5-1.5,3.4-2.2,5.6-2.2c2.3,0,4.2,0.8,5.7,2.5l-1.6,1.7c-0.7-0.7-1.4-1.1-2-1.4s-1.4-0.4-2.2-0.4
		c-1.5,0-2.7,0.5-3.7,1.4c-1,1-1.5,2.2-1.5,3.7s0.5,2.7,1.5,3.7s2.2,1.5,3.6,1.5c0.9,0,1.6-0.1,2.2-0.4s1.3-0.7,1.9-1.4l1.6,1.6
		c-1.6,1.7-3.4,2.6-5.7,2.6c-2.2,0-4.1-0.7-5.5-2.1c-1.5-1.4-2.2-3.2-2.2-5.4C236.7,209.6,237.4,207.7,238.9,206.3z M120.1,219.1
		h-9.2v-14.6h2.5v12.3h6.7V219.1z M122.2,206.9l-1.2,1.8h-1.3l0.8-1.8c-0.4-0.2-0.6-0.6-0.6-1c0-0.4,0.1-0.8,0.4-1
		c0.3-0.2,0.6-0.4,0.9-0.4s0.7,0.1,1,0.4c0.3,0.2,0.4,0.5,0.4,0.9C122.6,206.1,122.4,206.5,122.2,206.9z M136.1,219.1h-10.6v-14.6
		h10.3v2.3H128v3.9h7v2.2h-7v3.9h8.1V219.1z M147.9,219.1l-3.6-5.5h-0.1l-3.6,5.5h-3.1l5-7.5l-4.7-7.1h3.1l3.3,5h0.1l3.3-5h3.1
		l-4.7,7.1l5,7.5H147.9z M156.5,215.4c1,1,2.2,1.5,3.6,1.5c0.9,0,1.6-0.1,2.2-0.4s1.3-0.7,1.9-1.4l1.6,1.6c-1.6,1.7-3.4,2.6-5.7,2.6
		c-2.2,0-4.1-0.7-5.5-2.1c-1.5-1.4-2.2-3.2-2.2-5.4c0-2.2,0.7-4,2.2-5.5s3.4-2.2,5.6-2.2c2.3,0,4.2,0.8,5.7,2.5l-1.6,1.7
		c-0.7-0.7-1.4-1.1-2-1.4s-1.4-0.4-2.2-0.4c-1.5,0-2.7,0.5-3.7,1.4c-1,1-1.5,2.2-1.5,3.7C155,213.1,155.5,214.4,156.5,215.4z
		 M179.4,219.1h-10.6v-14.6h10.3v2.3h-7.8v3.9h7v2.2h-7v3.9h8.1V219.1z M191.7,219.1h-9.2v-14.6h2.5v12.3h6.7V219.1z M203.6,219.1
		h-9.2v-14.6h2.5v12.3h6.7V219.1z M216.9,219.1h-10.6v-14.6h10.3v2.3h-7.8v3.9h7v2.2h-7v3.9h8.1V219.1z M222.6,219.1h-2.5v-14.6h2.5
		l8.5,11v-11h2.5v14.7h-2.7l-8.3-10.7V219.1z M229.5,317.2h12.4v3.4H234v10.1h5.6v3.4H234v11.2h7.9v3.4h-12.4V317.2z M258.7,381.8
		c0,4.6-1.3,7.7-3.8,9.3c0.3,0.5,0.9,0.9,1.5,1.2c0.6,0.3,1.3,0.5,1.9,0.5v3.7c-1.3,0-2.5-0.4-3.8-1.3c-1.3-0.9-2.2-1.9-2.8-3
		c-0.5,0.1-1.1,0.1-1.8,0.1c-1.6,0-2.9-0.2-4.1-0.7s-2-1.2-2.7-2.1c-0.7-0.9-1.2-2-1.5-3.3c-0.3-1.3-0.5-2.7-0.5-4.4v-11.4
		c0-1.7,0.2-3.1,0.5-4.3c0.3-1.2,0.8-2.3,1.5-3.2s1.6-1.6,2.7-2s2.5-0.7,4.1-0.7c3.1,0,5.3,0.9,6.6,2.6s2,4.3,2,7.6v11.4H258.7z
		 M257,348.7h-3.4l-4.5-24.9v24.9h-4.5v-31.5h6.2l4.5,24.1l4.5-24.1h6.2v31.5h-4.5v-24.9L257,348.7z M280.4,380.7
		c0,1.4-0.1,2.7-0.3,3.9c-0.2,1.2-0.5,2.2-0.9,3.2s-1,1.8-1.6,2.5c-0.6,0.7-1.5,1.2-2.6,1.5c-1.1,0.3-2.2,0.5-3.6,0.5
		s-2.6-0.2-3.6-0.5c-1-0.3-1.9-0.9-2.6-1.5s-1.2-1.5-1.6-2.5s-0.7-2-0.9-3.2c-0.2-1.2-0.3-2.4-0.3-3.9v-20.2h4.5v20.2
		c0,1,0,1.8,0.1,2.4c0.1,0.6,0.1,1.4,0.3,2.1s0.4,1.3,0.7,1.8s0.8,0.8,1.3,1.1c0.5,0.3,1.3,0.4,2.1,0.4s1.5-0.1,2.1-0.4
		s1-0.7,1.3-1.1c0.3-0.4,0.6-1,0.7-1.8c0.1-0.8,0.3-1.4,0.3-2.1s0.1-1.5,0.1-2.4v-20.2h4.5V380.7z M296,391.9l-1.7-7.9h-5.6
		l-1.7,7.9h-4.5l6.8-31.5h4.5l6.7,31.5H296z M315.4,391.9H303v-31.5h4.5v28.1h7.9V391.9z M315.4,317.2h3.4l7.9,19.5v-19.5h4.5v31.5
		H328l-8.1-21v21h-4.5V317.2z M322.2,391.9h-4.5v-31.5h4.5V391.9z M340.5,364.4h-5.6v27.5h-4.5v-27.5h-5.6v-4h15.8L340.5,364.4
		L340.5,364.4z M355.1,363.8h-7.9v10.1h5.6v3.4h-5.6v11.2h7.9v3.4h-12.4v-31.5h12.4V363.8z M367.5,320.6h-7.9v10.1h5.6v3.4h-5.6
		v11.2h7.9v3.4h-12.4v-31.5h12.4V320.6z M376.1,219.1h-2.7l-8.3-10.7v10.7h-2.5v-14.6h2.5l8.5,11v-11h2.5V219.1z M389.4,219.1
		l-3.5-4.9h-3.3v4.9h-2.5v-14.6h5.5c2.2,0,3.8,0.4,4.8,1.1c1,0.8,1.4,2,1.4,3.6c0,2.4-1.1,3.9-3.2,4.6l3.8,5.3
		C392.4,219.1,389.4,219.1,389.4,219.1z M406,219.1h-10.6v-14.6h10.3v2.3h-7.8v3.9h7v2.2h-7v3.9h8.1V219.1z M417.4,219.1H415v-14.6
		h2.5v14.6H417.4z M435,219.1h-2.7l-8.3-10.7v10.7h-2.5v-14.6h2.5l8.5,11v-11h2.5V219.1z M449.6,219.1H439v-14.6h10.3v2.3h-7.8v3.9
		h7v2.2h-7v3.9h8.1V219.1z M464,217.1c-1.4,1.3-3.5,2-6.3,2h-4.9v-14.6h5c2.6,0,4.7,0.6,6.1,1.9s2.1,3.1,2.1,5.3
		C466,213.9,465.3,215.8,464,217.1z M471.7,219.1h-2.5v-14.6h2.5V219.1z M485.8,206.7h-4.5v12.4h-2.5v-12.4h-4.5v-2.3h11.4v2.3
		H485.8z"/>
	<path class="st0" d="M388.6,207.2c-0.5-0.4-1.4-0.5-2.8-0.5h-3.1v5.2h3.1c1.4,0,2.4-0.2,2.9-0.7s0.8-1.1,0.8-2.1
		S389.1,207.6,388.6,207.2z"/>
</g>
</svg>
