<?xml version="1.0" encoding="utf-8"?>
<!-- Generator: Adobe Illustrator 19.2.0, SVG Export Plug-In . SVG Version: 6.00 Build 0)  -->
<svg version="1.1" id="Calque_1" xmlns="http://www.w3.org/2000/svg" xmlns:xlink="http://www.w3.org/1999/xlink" x="0px" y="0px"
	 viewBox="0 0 869.2 513.6" style="enable-background:new 0 0 869.2 513.6;" xml:space="preserve">
<style type="text/css">
	.st0{fill:#F7F7F7;}
</style>
<g>
	<path class="st0" d="M588,148.4c-1.3-1.1-3.3-1.6-5.9-1.6h-1.6v14.1h1.6c2.6,0,4.6-0.5,5.9-1.6c1.3-1.1,2-2.9,2-5.4
		S589.3,149.5,588,148.4z"/>
	<polygon class="st0" points="422.9,350.2 429.2,350.2 426,331.4 	"/>
	<path class="st0" d="M710.8,152.5c0-0.6-0.1-1.2-0.2-1.5c-0.1-0.4-0.2-0.8-0.3-1.3s-0.3-0.8-0.5-1.1c-0.2-0.3-0.5-0.5-0.8-0.8
		c-0.3-0.3-0.7-0.5-1.1-0.6c-0.4-0.1-0.9-0.3-1.5-0.3c-0.6-0.1-1.2-0.1-1.9-0.1h-3.3v34.4h3.4c1,0,1.9-0.1,2.6-0.3
		c0.7-0.2,1.3-0.5,1.8-1c0.5-0.5,0.8-1,1.1-1.4c0.3-0.4,0.4-1.1,0.5-2.1c0.1-0.9,0.2-1.7,0.2-2.3c0-0.6,0-1.6,0-2.8c0-0.4,0-0.7,0-1
		v-14.1c0-0.8,0-1.4,0-1.9C710.8,153.8,710.8,153.2,710.8,152.5z"/>
	<path class="st0" d="M368.5,326.8c-2.2,0-3.7,0.6-4.6,1.9c-0.8,1.3-1.2,3.1-1.2,5.7v19c0,2.6,0.4,4.5,1.3,5.8c0.8,1.3,2.4,2,4.6,2
		s3.7-0.7,4.6-2c0.8-1.3,1.3-3.3,1.3-5.8v-19c0-2.5-0.4-4.4-1.2-5.7C372.2,327.4,370.7,326.8,368.5,326.8z"/>
	<path class="st0" d="M0,0v513.6h869.2V0H0z M684,129.8h6.2l-6.2,9.4h-3.1L684,129.8z M495.1,157.7c0-10.7,4.2-16.1,12.7-16.1
		c2,0,3.8,0.3,5.3,0.9c1.5,0.6,2.7,1.5,3.6,2.7s1.6,2.5,2.1,4.1c0.5,1.6,0.7,3.4,0.8,5.5c0,0.3,0,0.7,0,1.3h-6.2v-1.3
		c0-1-0.1-1.9-0.2-2.6c-0.1-0.7-0.3-1.5-0.5-2.2c-0.2-0.7-0.6-1.3-1-1.7c-0.4-0.4-0.9-0.8-1.6-1.1c-0.7-0.3-1.5-0.4-2.4-0.4
		c-1.3,0-2.3,0.2-3.2,0.7c-0.9,0.5-1.5,1.1-2,2c-0.5,0.9-0.8,1.9-1,2.9c-0.2,1.1-0.3,2.3-0.3,3.7v14.1c0,1,0,2,0.1,2.8
		c0.1,0.8,0.2,1.7,0.3,2.6c0.2,0.9,0.4,1.6,0.7,2.3c0.3,0.6,0.7,1.2,1.1,1.7c0.4,0.5,1,0.9,1.7,1.2c0.7,0.3,1.5,0.4,2.3,0.4
		c1,0,1.9-0.2,2.7-0.6c0.8-0.4,1.4-0.9,1.8-1.6c0.4-0.6,0.8-1.5,1.1-2.5c0.3-1,0.4-2,0.5-3c0.1-1,0.1-2.1,0.1-3.3v-1.6h-6.2V164
		h12.5v21.8h-4.7l-1.6-4.7c-1.2,3.4-3.3,5.1-6.2,5.1c-2,0-3.7-0.3-5.2-0.9c-1.5-0.6-2.7-1.3-3.6-2.3s-1.7-2.2-2.2-3.7
		c-0.6-1.5-0.9-3.1-1.1-4.8c-0.2-1.7-0.3-3.6-0.3-5.8V157.7z M486.6,217.7c0-2,0.1-3.7,0.3-5.3c0.2-1.6,0.6-3,1.2-4.4
		c0.6-1.4,1.3-2.5,2.2-3.4c0.9-0.9,2-1.6,3.4-2.1c1.4-0.5,3-0.8,4.9-0.8c2,0,3.8,0.3,5.3,0.9c1.5,0.6,2.7,1.5,3.6,2.7
		c0.9,1.2,1.6,2.5,2,4.1c0.4,1.5,0.7,3.4,0.8,5.4c0,0.3,0,0.8,0,1.4H504v-1.4c0-0.9,0-1.6-0.1-2.2s-0.1-1.2-0.3-1.9
		c-0.1-0.7-0.3-1.2-0.6-1.6c-0.3-0.4-0.6-0.8-1-1.2c-0.4-0.4-0.9-0.6-1.5-0.8s-1.3-0.3-2.1-0.3c-1,0-1.9,0.2-2.6,0.5
		c-0.7,0.3-1.3,0.7-1.7,1.3c-0.4,0.5-0.7,1.2-0.9,2.1c-0.2,0.9-0.4,1.7-0.4,2.5c-0.1,0.8-0.1,1.8-0.1,3v15.6c0,1,0,2,0.1,2.8
		c0.1,0.8,0.3,1.7,0.5,2.5c0.3,0.8,0.6,1.5,1,2.1c0.4,0.6,1,1,1.7,1.4c0.7,0.4,1.5,0.5,2.4,0.5s1.7-0.2,2.4-0.5
		c0.7-0.4,1.2-0.8,1.6-1.4c0.4-0.6,0.7-1.3,0.9-2.1c0.2-0.9,0.4-1.7,0.4-2.5c0.1-0.8,0.1-1.8,0.1-2.8v-1.6h6.2v1.6
		c0,2.3-0.2,4.2-0.6,6c-0.4,1.7-1,3.2-1.9,4.5c-0.9,1.3-2.1,2.3-3.6,3c-1.5,0.7-3.4,1-5.5,1c-1.8,0-3.5-0.3-4.9-0.8
		c-1.4-0.5-2.5-1.2-3.4-2.2c-0.9-0.9-1.6-2.1-2.2-3.4c-0.6-1.4-1-2.8-1.2-4.4c-0.2-1.6-0.3-3.3-0.3-5.3V217.7z M457.6,142.1h4.7
		l10.9,27.1v-27.1h6.2v43.8H475l-11.2-29.1v29.1h-6.2V142.1z M481.2,202.1v43.8h-4.4l-11.2-29.1v29.1h-6.2v-43.8h4.7l10.9,27.1
		v-27.1H481.2z M452.3,220.8v4.7h-7.8v15.6h10.9v4.7h-17.2v-43.8h17.2v4.7h-10.9v14.1H452.3z M426.7,142.1h6.2v28.1
		c0,1.4,0,2.5,0.1,3.4c0.1,0.9,0.2,1.9,0.5,2.9c0.2,1,0.6,1.9,1,2.5c0.4,0.6,1,1.1,1.8,1.5c0.8,0.4,1.7,0.6,2.9,0.6s2.1-0.2,2.9-0.6
		c0.8-0.4,1.4-0.9,1.8-1.5c0.4-0.6,0.8-1.4,1-2.5c0.2-1,0.4-2,0.5-2.9c0.1-0.9,0.1-2,0.1-3.4v-28.1h6.2v28.1c0,2-0.1,3.8-0.4,5.4
		s-0.7,3.1-1.2,4.4s-1.3,2.5-2.3,3.4c-0.9,0.9-2.1,1.6-3.6,2.1c-1.4,0.5-3.1,0.8-5,0.8s-3.6-0.3-5-0.8c-1.4-0.5-2.6-1.2-3.6-2.1
		s-1.7-2-2.3-3.4s-1-2.8-1.2-4.4s-0.4-3.4-0.4-5.4V142.1z M434.6,280.8v4.7h-7.8v15.6h10.9v4.7h-17.2v-43.8h17.2v4.7h-10.9v14.1
		H434.6z M422.3,142.1l-1.6,11.3h-3.1l-1.6-11.3H422.3z M425.8,229.1v-27.1h6.2v43.8h-4.4l-11.2-29.1v29.1h-6.2v-43.8h4.7
		L425.8,229.1z M408,289.1v-27.1h6.2v43.8h-4.4l-11.2-29.1v29.1h-6.2v-43.8h4.7L408,289.1z M397.2,245.8v-43.8h6.2v43.8H397.2z
		 M390,142.1h9.7c4.6,0,7.8,0.9,9.7,2.8c1.9,1.9,2.8,5.1,2.8,9.7v17.2c0,4.8-1,8.3-2.9,10.6c-1.9,2.3-5.1,3.4-9.7,3.4H390V142.1z
		 M390.7,202.1v43.8h-6.2v-34.5l-6.2,34.5h-4.7l-6.2-34.5v34.5H361v-43.8h8.6l6.2,33.5l6.2-33.5H390.7z M385.7,262.1v43.8h-6.2
		v-43.8H385.7z M373.2,280.8v4.7h-7.8v20.3h-6.2v-43.8h17.2v4.7h-10.9v14.1H373.2z M358.8,142.1H376v4.7h-10.9v14.1h7.8v4.7h-7.8
		v15.6H376v4.7h-17.2V142.1z M135,185.8h-17.2v-43.8h6.2v39.1H135V185.8z M141,153.4h-3.1l-1.6-11.3h6.2L141,153.4z M164.5,146.8
		h-10.9v14.1h7.8v4.7h-7.8v15.6h10.9v4.7h-17.2v-43.8h17.2V146.8z M190.6,185.8h-6.2l-6.2-18.8l-6.2,18.8h-6.2l7.8-22.7l-7.8-21.1
		h6.2l6.2,17.2l6.2-17.2h6.2l-7.8,21L190.6,185.8z M210.9,152.5c0-0.6-0.1-1.2-0.3-1.9c-0.1-0.7-0.3-1.2-0.6-1.6
		c-0.3-0.4-0.6-0.8-1-1.2c-0.4-0.4-0.9-0.6-1.5-0.8s-1.3-0.3-2.1-0.3c-1,0-1.9,0.2-2.6,0.5c-0.7,0.3-1.3,0.7-1.7,1.3
		c-0.4,0.5-0.7,1.2-0.9,2.1c-0.2,0.9-0.4,1.7-0.4,2.5c-0.1,0.8-0.1,1.8-0.1,3v15.6c0,1,0,2,0.1,2.8c0.1,0.8,0.3,1.7,0.5,2.5
		c0.3,0.8,0.6,1.5,1,2.1c0.4,0.6,1,1,1.7,1.4c0.7,0.4,1.5,0.5,2.4,0.5s1.7-0.2,2.4-0.5c0.7-0.4,1.2-0.8,1.6-1.4
		c0.4-0.6,0.7-1.3,0.9-2.1c0.2-0.9,0.4-1.7,0.4-2.5c0.1-0.8,0.1-1.8,0.1-2.8v-1.6h6.2v1.6c0,2.3-0.2,4.2-0.6,6
		c-0.4,1.7-1,3.2-1.9,4.5c-0.9,1.3-2.1,2.3-3.6,3c-1.5,0.7-3.4,1-5.5,1c-1.8,0-3.5-0.3-4.9-0.8c-1.4-0.5-2.5-1.2-3.4-2.2
		c-0.9-0.9-1.6-2.1-2.2-3.4c-0.6-1.4-1-2.8-1.2-4.4c-0.2-1.6-0.3-3.3-0.3-5.3v-12.5c0-2,0.1-3.7,0.3-5.3c0.2-1.6,0.6-3,1.2-4.4
		c0.6-1.4,1.3-2.5,2.2-3.4c0.9-0.9,2-1.6,3.4-2.1c1.4-0.5,3-0.8,4.9-0.8c2,0,3.8,0.3,5.3,0.9c1.5,0.6,2.7,1.5,3.6,2.7
		c0.9,1.2,1.6,2.5,2,4.1c0.4,1.5,0.7,3.4,0.8,5.4c0,0.3,0,0.8,0,1.4H211v-1.4C211,153.9,211,153.1,210.9,152.5z M238.6,146.8h-10.9
		v14.1h7.8v4.7h-7.8v15.6h10.9v4.7h-17.2v-43.8h17.2V146.8z M259.7,185.8h-17.2v-43.8h6.2v39.1h10.9V185.8z M279.7,185.8h-17.2
		v-43.8h6.2v39.1h10.9V185.8z M299.8,146.8h-10.9v14.1h7.8v4.7h-7.8v15.6h10.9v4.7h-17.2v-43.8h17.2V146.8z M325.5,185.8h-4.4
		l-11.2-29.1v29.1h-6.2v-43.8h4.7l10.9,27.1v-27.1h6.2V185.8z M334.7,183.3c-0.9-0.9-1.6-2.1-2.2-3.4c-0.6-1.4-1-2.8-1.2-4.4
		c-0.2-1.6-0.3-3.3-0.3-5.3v-12.5c0-2,0.1-3.7,0.3-5.3c0.2-1.6,0.6-3,1.2-4.4c0.6-1.4,1.3-2.5,2.2-3.4c0.9-0.9,2-1.6,3.4-2.1
		c1.4-0.5,3-0.8,4.9-0.8c2,0,3.8,0.3,5.3,0.9c1.5,0.6,2.7,1.5,3.6,2.7c0.9,1.2,1.6,2.5,2,4.1c0.4,1.5,0.7,3.4,0.8,5.4
		c0,0.3,0,0.8,0,1.4h-6.2v-1.4c0-0.9,0-1.6-0.1-2.2s-0.1-1.2-0.3-1.9c-0.1-0.7-0.3-1.2-0.6-1.6c-0.3-0.4-0.6-0.8-1-1.2
		c-0.4-0.4-0.9-0.6-1.5-0.8s-1.3-0.3-2.1-0.3c-1,0-1.9,0.2-2.6,0.5c-0.7,0.3-1.3,0.7-1.7,1.3c-0.4,0.5-0.7,1.2-0.9,2.1
		c-0.2,0.9-0.4,1.7-0.4,2.5c-0.1,0.8-0.1,1.8-0.1,3v15.6c0,1,0,2,0.1,2.8c0.1,0.8,0.3,1.7,0.5,2.5c0.3,0.8,0.6,1.5,1,2.1
		c0.4,0.6,1,1,1.7,1.4c0.7,0.4,1.5,0.5,2.4,0.5s1.7-0.2,2.4-0.5c0.7-0.4,1.2-0.8,1.6-1.4c0.4-0.6,0.7-1.3,0.9-2.1
		c0.2-0.9,0.4-1.7,0.4-2.5c0.1-0.8,0.1-1.8,0.1-2.8v-1.6h6.2v1.6c0,2.3-0.2,4.2-0.6,6c-0.4,1.7-1,3.2-1.9,4.5
		c-0.9,1.3-2.1,2.3-3.6,3c-1.5,0.7-3.4,1-5.5,1c-1.8,0-3.5-0.3-4.9-0.8C336.8,185,335.6,184.2,334.7,183.3z M356.4,189.8l-6.2,9.4
		H347l3.1-9.4H356.4z M340,202.1h17.2v4.7h-10.9v14.1h7.8v4.7h-7.8v15.6h10.9v4.7H340V202.1z M380.5,351.8c0,6.4-1.8,10.7-5.2,12.9
		c0.5,0.7,1.2,1.2,2.1,1.7c1,0.4,1.8,0.6,2.6,0.6v5.1c-1.8,0-3.5-0.6-5.3-1.9c-1.8-1.2-3-2.6-3.8-4.1c-0.7,0.1-1.5,0.2-2.4,0.2
		c-2.2,0-4.1-0.3-5.7-1c-1.6-0.7-2.8-1.6-3.7-2.9c-0.9-1.3-1.6-2.8-2-4.5c-0.4-1.7-0.6-3.7-0.6-6v-15.9c0-2.3,0.2-4.3,0.6-6
		c0.4-1.7,1.1-3.2,2-4.5c0.9-1.3,2.2-2.2,3.7-2.8c1.6-0.6,3.5-1,5.7-1c4.3,0,7.3,1.2,9.2,3.7c1.9,2.4,2.8,6,2.8,10.6V351.8z
		 M410.7,350.2c0,2-0.1,3.8-0.4,5.4c-0.2,1.6-0.7,3.1-1.2,4.4s-1.3,2.5-2.3,3.4c-0.9,0.9-2.1,1.6-3.6,2.1c-1.4,0.5-3.1,0.8-5,0.8
		s-3.6-0.3-5-0.8c-1.4-0.5-2.6-1.2-3.6-2.1c-0.9-0.9-1.7-2-2.3-3.4s-1-2.8-1.2-4.4c-0.2-1.6-0.4-3.4-0.4-5.4v-28.1h6.2v28.1
		c0,1.4,0,2.5,0.1,3.4c0.1,0.9,0.2,1.9,0.5,2.9c0.2,1,0.6,1.9,1,2.5c0.4,0.6,1,1.1,1.8,1.5c0.8,0.4,1.7,0.6,2.9,0.6s2.1-0.2,2.9-0.6
		c0.8-0.4,1.4-0.9,1.8-1.5c0.4-0.6,0.8-1.4,1-2.5c0.2-1,0.4-2,0.5-2.9c0.1-0.9,0.1-2,0.1-3.4v-28.1h6.2V350.2z M432.3,365.8
		l-2.3-10.9h-7.8l-2.3,10.9h-6.2l9.4-43.8h6.2l9.4,43.8H432.3z M459.2,365.8H442v-43.8h6.2v39.1h10.9V365.8z M452.9,306.3
		c-3.9,0-6.9-1.2-9-3.5c-2.1-2.3-3.2-5.5-3.5-9.5l6.2-1.6c0.3,6.2,2.4,9.4,6.2,9.4c3.1,0,4.7-1.6,4.7-4.7c0-0.9-0.1-1.8-0.4-2.6
		c-0.3-0.8-0.6-1.5-1.2-2.2c-0.5-0.7-1-1.2-1.4-1.6c-0.4-0.4-1-0.9-1.7-1.5l-7.8-6.2c-1.4-1.1-2.6-2.6-3.4-4.3
		c-0.9-1.7-1.3-3.7-1.3-5.9c0-3.2,1-5.8,3-7.7s4.7-2.9,8-2.9c3.5,0,6.4,0.9,8.5,2.6c2.1,1.7,3.4,4.2,3.9,7.4c0,0.3,0.1,0.8,0.2,1.4
		l-6.2,1.6c0-0.3-0.1-0.7-0.1-1.2c-0.3-2-0.9-3.6-1.9-4.8c-1-1.2-2.4-1.8-4.3-1.8c-1.5,0-2.7,0.4-3.5,1.3c-0.8,0.8-1.2,2-1.2,3.5
		c0,2.5,1,4.5,3.1,6.2l7.8,6.2c4.2,3.4,6.2,7.4,6.2,12.1c0,3.2-1,5.7-3,7.5C458.9,305.4,456.2,306.3,452.9,306.3z M468.7,365.8h-6.2
		v-43.8h6.2V365.8z M467.3,293.3l6.2-1.6c0.3,6.2,2.4,9.4,6.2,9.4c3.1,0,4.7-1.6,4.7-4.7c0-0.9-0.1-1.8-0.4-2.6
		c-0.3-0.8-0.6-1.5-1.2-2.2c-0.5-0.7-1-1.2-1.4-1.6c-0.4-0.4-1-0.9-1.7-1.5l-7.8-6.2c-1.4-1.1-2.6-2.6-3.4-4.3
		c-0.9-1.7-1.3-3.7-1.3-5.9c0-3.2,1-5.8,3-7.7s4.7-2.9,8-2.9c3.5,0,6.4,0.9,8.5,2.6c2.1,1.7,3.4,4.2,3.9,7.4c0,0.3,0.1,0.8,0.2,1.4
		l-6.2,1.6c0-0.3-0.1-0.7-0.1-1.2c-0.3-2-0.9-3.6-1.9-4.8c-1-1.2-2.4-1.8-4.3-1.8c-1.5,0-2.7,0.4-3.5,1.3c-0.8,0.8-1.2,2-1.2,3.5
		c0,2.5,1,4.5,3.1,6.2l7.8,6.2c4.2,3.4,6.2,7.4,6.2,12.1c0,3.2-1,5.7-3,7.5c-2,1.8-4.6,2.7-8,2.7c-3.9,0-6.9-1.2-9-3.5
		C468.7,300.5,467.6,297.3,467.3,293.3z M494.1,327.6h-7.8v38.2H480v-38.2h-7.8v-5.6h21.9V327.6z M495.3,262.1h17.2v4.7h-10.9v14.1
		h7.8v4.7h-7.8v15.6h10.9v4.7h-17.2V262.1z M513.6,309.8l-6.2,9.4h-3.1l3.1-9.4H513.6z M514.4,326.8h-10.9v14.1h7.8v4.7h-7.8v15.6
		h10.9v4.7h-17.2v-43.8h17.2V326.8z M531.6,206.8h-10.9v14.1h7.8v4.7h-7.8v15.6h10.9v4.7h-17.2v-43.8h17.2V206.8z M542.3,146.8
		h-10.9v14.1h7.8v4.7h-7.8v15.6h10.9v4.7h-17.2v-43.8h17.2V146.8z M568,185.8h-4.4l-11.2-29.1v29.1h-6.2v-43.8h4.7l10.9,27.1v-27.1
		h6.2V185.8z M591.5,185.8l-6.3-20.3h-4.7v20.3h-6.2v-43.8h7.8c4.7,0,8.2,0.9,10.5,2.7c2.4,1.8,3.5,4.8,3.5,9c0,2.6-0.5,4.8-1.4,6.5
		s-2.3,3-4.1,3.6l7,21.9H591.5z M618.5,146.8h-10.9v14.1h7.8v4.7h-7.8v15.6h10.9v4.7h-17.2v-43.8h17.2V146.8z M639.1,185.8h-6.2
		v-43.8h6.2V185.8z M667.6,185.8h-4.4L652,156.7v29.1h-6.2v-43.8h4.7l10.9,27.1v-27.1h6.2V185.8z M691.1,146.8h-10.9v14.1h7.8v4.7
		h-7.8v15.6h10.9v4.7h-17.2v-43.8h17.2V146.8z M717.1,171.8c0,4.8-1,8.3-2.9,10.6c-1.9,2.3-5.1,3.4-9.7,3.4h-9.6v-43.8h9.7
		c4.6,0,7.8,0.9,9.7,2.8c1.9,1.9,2.8,5.1,2.8,9.7V171.8z M729.1,185.8h-6.2v-43.8h6.2V185.8z M754.5,147.6h-7.8v38.2h-6.2v-38.2
		h-7.8v-5.6h21.9V147.6z"/>
	<path class="st0" d="M402.3,180.8c0.7-0.2,1.3-0.5,1.8-1c0.5-0.5,0.8-1,1.1-1.4c0.3-0.4,0.4-1.1,0.5-2.1c0.1-0.9,0.2-1.7,0.2-2.3
		c0-0.6,0-1.6,0-2.8c0-0.4,0-0.7,0-1v-14.1c0-0.8,0-1.4,0-1.9c0-0.5,0-1-0.1-1.7c0-0.6-0.1-1.2-0.2-1.5c-0.1-0.4-0.2-0.8-0.3-1.3
		s-0.3-0.8-0.5-1.1c-0.2-0.3-0.5-0.5-0.8-0.8c-0.3-0.3-0.7-0.5-1.1-0.6c-0.4-0.1-0.9-0.3-1.5-0.3c-0.6-0.1-1.2-0.1-1.9-0.1h-3.3
		v34.4h3.4C400.7,181.1,401.6,181,402.3,180.8z"/>
</g>
</svg>
